<svg width="60" height="60" viewBox="0 0 60 60" fill="none" xmlns="http://www.w3.org/2000/svg">
<circle cx="30" cy="30" r="30" fill="#3098F3"/>
<path fill-rule="evenodd" clip-rule="evenodd" d="M25.1992 23.1395C25.1992 25.7047 27.4869 27.7968 30.2921 27.7968C33.0972 27.7968 35.3849 25.7047 35.3849 23.1395C35.3849 20.5742 33.0972 18.4822 30.2921 18.4822C27.4869 18.4822 25.1992 20.5742 25.1992 23.1395ZM28.1094 23.1395C28.1094 22.042 29.092 21.1435 30.2921 21.1435C31.4921 21.1435 32.4747 22.0352 32.4747 23.1395C32.4747 24.2369 31.4921 25.1354 30.2921 25.1354C29.092 25.1354 28.1094 24.2369 28.1094 23.1395ZM30.878 33.6955L34.8758 40.4311L37.501 39.1827L31.5756 29.2029L28.7779 29.8271C28.7779 31.5075 28.1629 33.0919 26.9853 34.402C25.8527 35.6709 24.2551 36.5763 22.5 36.9467L23.16 39.5394C25.5677 39.0387 27.7503 37.8041 29.3029 36.0687C29.948 35.3486 30.4805 34.546 30.878 33.6955Z" fill="white"/>
</svg>
