<svg width="14" height="14" viewBox="0 0 14 14" fill="none" xmlns="http://www.w3.org/2000/svg">
<path fill-rule="evenodd" clip-rule="evenodd" d="M13.7046 1.77841C14.0951 1.38789 14.0951 0.754725 13.7046 0.3642L13.6362 0.295823C13.2457 -0.0947012 12.6125 -0.0947014 12.222 0.295823L6.99874 5.51908L1.77548 0.295822C1.38496 -0.0947018 0.751795 -0.0947015 0.361271 0.295823L0.292893 0.3642C-0.0976308 0.754724 -0.097631 1.38789 0.292893 1.77841L5.51615 7.00167L0.292893 12.2249C-0.0976315 12.6155 -0.0976312 13.2486 0.292893 13.6391L0.36127 13.7075C0.751795 14.098 1.38496 14.098 1.77548 13.7075L6.99874 8.48426L12.222 13.7075C12.6125 14.098 13.2457 14.098 13.6362 13.7075L13.7046 13.6391C14.0951 13.2486 14.0951 12.6155 13.7046 12.2249L8.48133 7.00167L13.7046 1.77841Z" fill="#736E7D"/>
</svg>
