<svg width="22" height="22" viewBox="0 0 22 22" fill="none" xmlns="http://www.w3.org/2000/svg">
<rect width="22" height="22" rx="11" fill="#736E7D"/>
<path fill-rule="evenodd" clip-rule="evenodd" d="M9.0678 6.00001C8.88223 6.00076 7.34704 6.04433 5.72751 7.24774C5.72751 7.24774 4 10.3549 4 14.1818C4 14.1818 5.0077 15.9093 7.65894 15.9932C7.65894 15.9932 8.10281 15.4654 8.46271 15.0095C6.93914 14.5537 6.36331 13.606 6.36331 13.606C6.36331 13.606 6.4833 13.6899 6.69924 13.8099C6.70665 13.8099 6.71405 13.8145 6.72429 13.8208C6.73061 13.8247 6.73802 13.8293 6.74719 13.8339C6.76518 13.8459 6.78318 13.8549 6.80118 13.8639C6.81918 13.8729 6.83718 13.8819 6.85517 13.8939C7.15508 14.0618 7.45499 14.1938 7.73091 14.3018C8.22277 14.5057 8.81062 14.6856 9.49443 14.8176C10.3942 14.9855 11.4498 15.0455 12.6015 14.8296C13.1654 14.7216 13.7412 14.5657 14.3411 14.3137C14.7609 14.1578 15.2288 13.9299 15.7206 13.606C15.7206 13.606 15.1208 14.5777 13.5493 15.0216C13.9092 15.4654 14.3411 15.9813 14.3411 15.9813C16.8529 15.9017 17.8895 14.347 17.9915 14.1938C17.9972 14.1853 18 14.1812 18 14.1818C18 10.3549 16.2725 7.24774 16.2725 7.24774C14.557 5.96411 12.9134 6.00011 12.9134 6.00011L12.7455 6.19205C14.7849 6.80387 15.7326 7.70364 15.7326 7.70364C14.485 7.03183 13.2614 6.6959 12.1217 6.56394C11.2579 6.46797 10.4301 6.49199 9.69835 6.58796C9.63547 6.58796 9.58175 6.5971 9.52117 6.60741L9.49443 6.61194C9.07455 6.65992 8.05484 6.80387 6.77121 7.36771C6.32734 7.55965 6.06339 7.70364 6.06339 7.70364C6.06339 7.70364 7.04711 6.75588 9.20649 6.14405L9.08652 6.00011C9.08652 6.00011 9.08017 5.99996 9.0678 6.00001V6.00001ZM8.76263 10.4269C9.44643 10.4269 9.99828 11.0147 9.98629 11.7465C9.98629 12.4782 9.44643 13.0661 8.76263 13.0661C8.09082 13.0661 7.53897 12.4782 7.53897 11.7465C7.53897 11.0147 8.07882 10.4269 8.76263 10.4269ZM14.365 11.7465C14.365 11.0147 13.8132 10.4269 13.1414 10.4269C12.4576 10.4269 11.9177 11.0147 11.9177 11.7465C11.9177 12.4782 12.4696 13.0661 13.1414 13.0661C13.8252 13.0661 14.365 12.4782 14.365 11.7465Z" fill="white"/>
</svg>
