<svg width="24" height="24" viewBox="0 0 24 24" fill="none" xmlns="http://www.w3.org/2000/svg">
<rect width="24" height="24" fill="white"/>
<path fill-rule="evenodd" clip-rule="evenodd" d="M20 6.5H17.8551C17.4248 5.05426 16.0855 4 14.5 4C12.9145 4 11.5752 5.05426 11.1449 6.5H4C3.44772 6.5 3 6.94772 3 7.5C3 8.05228 3.44772 8.5 4 8.5H11.1449C11.5752 9.94574 12.9145 11 14.5 11C16.0855 11 17.4248 9.94574 17.8551 8.5H20C20.5523 8.5 21 8.05228 21 7.5C21 6.94772 20.5523 6.5 20 6.5ZM6.14494 15.5H4C3.44772 15.5 3 15.9477 3 16.5C3 17.0523 3.44772 17.5 4 17.5H6.14494C6.57521 18.9457 7.91449 20 9.5 20C11.0855 20 12.4248 18.9457 12.8551 17.5H20C20.5523 17.5 21 17.0523 21 16.5C21 15.9477 20.5523 15.5 20 15.5H12.8551C12.4248 14.0543 11.0855 13 9.5 13C7.91449 13 6.57521 14.0543 6.14494 15.5ZM7.5 16.5C7.5 17.6046 8.39543 18.5 9.5 18.5C10.6046 18.5 11.5 17.6046 11.5 16.5C11.5 15.3954 10.6046 14.5 9.5 14.5C8.39543 14.5 7.5 15.3954 7.5 16.5ZM14.5 9.5C15.6046 9.5 16.5 8.60457 16.5 7.5C16.5 6.39543 15.6046 5.5 14.5 5.5C13.3954 5.5 12.5 6.39543 12.5 7.5C12.5 8.60457 13.3954 9.5 14.5 9.5Z" fill="#FF2D55"/>
</svg>
