<svg width="24" height="25" viewBox="0 0 24 25" fill="none" xmlns="http://www.w3.org/2000/svg">
<rect y="0.5" width="24" height="24" rx="4" fill="#FF2D55"/>
<path fill-rule="evenodd" clip-rule="evenodd" d="M20 7H17.8551C17.4248 5.55426 16.0855 4.5 14.5 4.5C12.9145 4.5 11.5752 5.55426 11.1449 7H4C3.44772 7 3 7.44772 3 8C3 8.55228 3.44772 9 4 9H11.1449C11.5752 10.4457 12.9145 11.5 14.5 11.5C16.0855 11.5 17.4248 10.4457 17.8551 9H20C20.5523 9 21 8.55228 21 8C21 7.44772 20.5523 7 20 7ZM6.14494 16H4C3.44772 16 3 16.4477 3 17C3 17.5523 3.44772 18 4 18H6.14494C6.57521 19.4457 7.91449 20.5 9.5 20.5C11.0855 20.5 12.4248 19.4457 12.8551 18H20C20.5523 18 21 17.5523 21 17C21 16.4477 20.5523 16 20 16H12.8551C12.4248 14.5543 11.0855 13.5 9.5 13.5C7.91449 13.5 6.57521 14.5543 6.14494 16ZM7.5 17C7.5 18.1046 8.39543 19 9.5 19C10.6046 19 11.5 18.1046 11.5 17C11.5 15.8954 10.6046 15 9.5 15C8.39543 15 7.5 15.8954 7.5 17ZM14.5 10C15.6046 10 16.5 9.10457 16.5 8C16.5 6.89543 15.6046 6 14.5 6C13.3954 6 12.5 6.89543 12.5 8C12.5 9.10457 13.3954 10 14.5 10Z" fill="white"/>
</svg>
