<svg width="22" height="22" viewBox="0 0 22 22" fill="none" xmlns="http://www.w3.org/2000/svg">
<rect width="22" height="22" rx="11" fill="#736E7D"/>
<path d="M12.8886 14.783C12.8886 14.928 12.8886 15.0729 12.8886 15.2903C12.8886 16.1599 12.8886 16.957 12.8886 17.8266C12.8886 17.9716 12.8886 18.044 12.7383 17.9716C11.6865 17.9716 10.6347 17.9716 9.58289 17.9716C9.43263 17.9716 9.43263 17.8991 9.43263 17.8266C9.43263 17.3918 9.43263 16.8846 9.43263 16.4498C9.43263 16.3773 9.50776 16.3048 9.3575 16.3048H9.28237C9.20724 16.3048 9.20724 16.3048 9.13211 16.3048C8.68134 16.3773 8.30569 16.3773 7.85491 16.3048C7.10362 16.0874 6.57772 15.7251 6.2772 15.0004C6.05181 14.5656 5.75129 14.1308 5.45078 13.7685C5.37565 13.6236 5.15026 13.6236 5.07513 13.4786C5 13.4062 5 13.4062 5 13.3337C5 13.2612 5.07513 13.2612 5.15026 13.2612C5.82642 13.1888 6.35233 13.5511 6.65285 14.0584C6.95336 14.5656 7.40414 14.928 7.93004 15.0729C8.38082 15.1454 8.75647 15.1454 9.20724 15.0004C9.28237 15.0004 9.3575 14.928 9.3575 14.783C9.3575 14.3482 9.50776 13.9859 9.80828 13.6236C9.65802 13.6236 9.58289 13.5511 9.50776 13.5511C8.75647 13.4786 8.0803 13.1888 7.5544 12.754C6.87823 12.2467 6.50259 11.5945 6.35233 10.8698C6.2772 10.1451 6.2772 9.49295 6.35233 8.76828C6.42746 8.26101 6.57772 7.75374 6.95336 7.31894C7.10362 7.17401 7.10362 7.10154 7.02849 6.88414C6.8031 6.3044 6.87823 5.72467 7.10362 5.14493C7.10362 5 7.17875 5 7.32901 5C7.77978 5.14493 8.15543 5.36233 8.45595 5.6522C8.60621 5.79714 8.75647 5.94207 8.90672 6.15947C8.98185 6.23194 8.98185 6.23194 9.05698 6.15947C9.28237 5.94207 9.58289 5.94207 9.88341 5.8696C10.7098 5.72467 11.6114 5.72467 12.4378 5.8696C12.7383 5.94207 13.0388 5.94207 13.2642 6.15947C13.4145 6.23194 13.4145 6.23194 13.4896 6.087C13.715 5.79714 14.0155 5.50727 14.316 5.28987C14.5414 5.14493 14.7668 5.07247 14.9922 5C15.0673 5 15.1425 5 15.2176 5.07247C15.443 5.72467 15.5181 6.3044 15.2176 6.95661C15.2176 7.02907 15.1425 7.10154 15.2176 7.17401C15.6684 7.53634 15.8186 8.04361 15.8938 8.55088C15.9689 9.20308 16.044 9.85528 15.9689 10.5075C15.8186 11.5945 15.2176 12.4641 14.2409 12.9714C14.1658 12.9714 14.1658 12.9714 14.1658 13.0438C14.1658 13.0438 14.0906 13.0438 14.0906 13.1163C14.0155 13.1163 13.9404 13.1888 13.8653 13.1888H13.7901C13.715 13.1888 13.715 13.1888 13.715 13.2612H13.6399C13.4896 13.2612 13.3394 13.3337 13.2642 13.4062H13.1891C13.114 13.4062 12.9637 13.4062 12.8886 13.4786C12.8134 13.4786 12.7383 13.4786 12.6632 13.4786C12.5881 13.4786 12.5129 13.4786 12.5129 13.4786C12.4378 13.4786 12.5129 13.5511 12.5129 13.5511C12.5129 13.6236 12.5129 13.6236 12.5881 13.6236C12.5881 13.696 12.6632 13.696 12.6632 13.7685C12.6632 13.841 12.6632 13.9134 12.7383 13.9859V14.0584C12.7383 14.1308 12.7383 14.2758 12.8134 14.3482V14.4207C12.8134 14.4932 12.8134 14.4932 12.8134 14.5656C12.8886 14.7106 12.8886 14.7106 12.8886 14.783Z" fill="white"/>
</svg>
