<svg width="13" height="16" viewBox="0 0 13 16" fill="none" xmlns="http://www.w3.org/2000/svg">
<path fill-rule="evenodd" clip-rule="evenodd" d="M12.5 6.36207C12.5 8.96836 9.06126 13.3964 7.28518 15.5096C6.73847 16.16 5.76153 16.16 5.21483 15.5096C3.43874 13.3964 0 8.96836 0 6.36207C0 2.8484 2.79822 0 6.25 0C9.70178 0 12.5 2.8484 12.5 6.36207ZM8.46044 6.36222C8.46044 7.60448 7.47113 8.61153 6.25075 8.61153C5.03038 8.61153 4.04107 7.60448 4.04107 6.36222C4.04107 5.11997 5.03038 4.11292 6.25075 4.11292C7.47113 4.11292 8.46044 5.11997 8.46044 6.36222Z" fill="#736E7D"/>
</svg>
