<svg width="22" height="22" viewBox="0 0 22 22" fill="none" xmlns="http://www.w3.org/2000/svg">
<rect width="22" height="22" rx="11" fill="#736E7D"/>
<path fill-rule="evenodd" clip-rule="evenodd" d="M17.7383 11.4851C17.9346 11.2225 18 10.9599 18 10.6316C18 10.2376 17.8692 9.84367 17.4766 9.51537C17.1495 9.18708 16.8224 9.05576 16.3645 9.05576C15.9065 9.05576 15.5794 9.18708 15.2523 9.51537C14.0748 8.72746 12.7664 8.33351 11.1963 8.26785L11.9813 4.59093L14.5981 5.18187C14.5981 5.51016 14.729 5.83846 14.9252 6.03544C15.1869 6.23241 15.4486 6.36373 15.7757 6.36373C16.1028 6.36373 16.4299 6.29807 16.6262 6.03544C16.8224 5.7728 16.9533 5.51016 16.9533 5.18187C16.9533 4.85357 16.8224 4.52527 16.6262 4.3283C16.3645 4.13132 16.1028 4 15.7757 4C15.5794 4 15.3832 4.06566 15.1869 4.19698C15.1552 4.22884 15.1196 4.2607 15.0829 4.29351C14.9685 4.39589 14.8439 4.50741 14.7944 4.65659L11.9159 4C11.8505 4 11.785 4 11.7196 4.06566C11.6542 4.06566 11.5888 4.13132 11.5888 4.19698L10.6729 8.26785C9.16822 8.33351 7.79439 8.72746 6.68224 9.51537C6.35514 9.18708 6.02804 9.05576 5.57009 9.05576C5.11215 9.05576 4.78505 9.18708 4.45794 9.51537C4.13084 9.84367 4 10.2376 4 10.6316C4 10.9599 4.13084 11.2225 4.26168 11.4851C4.45794 11.7478 4.65421 11.9448 4.91589 12.0761C4.85047 12.3387 4.85047 12.5357 4.85047 12.7983C4.85047 13.5862 5.17757 14.3742 5.70093 15.0307C6.2243 15.753 6.94393 16.2783 7.92523 16.6722C8.84112 17.0662 9.88785 17.2632 11 17.2632C12.1776 17.2632 13.2243 17.0662 14.1402 16.6722C15.0561 16.2783 15.8411 15.6873 16.3645 15.0307C16.9533 14.3742 17.215 13.5862 17.215 12.7983C17.215 12.5357 17.215 12.3387 17.1495 12.0761C17.4112 11.9448 17.6075 11.7478 17.7383 11.4851ZM7.66355 13.061C7.46729 12.7983 7.33645 12.5357 7.33645 12.2074C7.33645 11.8791 7.53271 11.5508 7.72897 11.3538C7.92523 11.1569 8.18692 11.0255 8.51402 11.0255C8.84112 11.0255 9.16822 11.1569 9.36449 11.3538C9.56075 11.6165 9.69159 11.8791 9.69159 12.2074C9.69159 12.5357 9.56075 12.864 9.36449 13.061C9.1028 13.2579 8.84112 13.3893 8.51402 13.3893C8.18692 13.3893 7.85981 13.3236 7.66355 13.061ZM13.6168 14.9651C13.6822 14.8994 13.6822 14.8338 13.6822 14.7681C13.6822 14.7024 13.6822 14.6368 13.6168 14.5711C13.5514 14.5055 13.486 14.5055 13.4206 14.5055C13.3551 14.5055 13.2897 14.5055 13.2243 14.5711C13.028 14.7681 12.7009 14.9651 12.3084 15.0307C11.9159 15.1621 11.4579 15.1621 11.0654 15.1621C10.6729 15.1621 10.215 15.0964 9.82243 15.0307C9.42991 14.8994 9.1028 14.7681 8.90654 14.5711C8.84112 14.5055 8.7757 14.5055 8.71028 14.5055C8.64486 14.5055 8.57944 14.5055 8.51402 14.5711C8.4486 14.6368 8.4486 14.7024 8.4486 14.7681C8.4486 14.8338 8.4486 14.8994 8.51402 14.9651C8.71028 15.1621 9.03738 15.359 9.42991 15.4904C9.72977 15.5907 9.99145 15.6527 10.215 15.7056L10.215 15.7056C10.284 15.722 10.3495 15.7375 10.4112 15.753C10.5421 15.753 10.6565 15.7694 10.771 15.7858C10.8855 15.8022 11 15.8187 11.1308 15.8187C11.3925 15.8187 11.5888 15.8187 11.8505 15.753C12.0672 15.753 12.3289 15.6629 12.6355 15.5573L12.6355 15.5573L12.6356 15.5573C12.6991 15.5354 12.7645 15.5129 12.8318 15.4904C12.8684 15.472 12.9064 15.4536 12.945 15.4348C13.1825 15.3197 13.448 15.1909 13.6168 14.9651ZM14.4673 13.061C14.2056 13.2579 13.9439 13.3893 13.6168 13.3893C13.2897 13.3893 13.028 13.2579 12.8318 13.1266C12.6355 12.864 12.5047 12.6014 12.5047 12.2731C12.5047 11.9448 12.6355 11.6165 12.8318 11.4195C13.0935 11.2225 13.3551 11.0912 13.6822 11.0912C13.9439 11.0912 14.271 11.2225 14.4673 11.4195C14.6636 11.6165 14.7944 11.8791 14.7944 12.2074C14.7944 12.5357 14.729 12.864 14.4673 13.061Z" fill="white"/>
</svg>
