<svg width="22" height="22" viewBox="0 0 22 22" fill="none" xmlns="http://www.w3.org/2000/svg">
<rect width="22" height="22" rx="11" fill="#736E7D"/>
<path d="M18 6.82494C17.5385 7.05875 17 7.21463 16.4615 7.21463C17 6.90288 17.4615 6.35731 17.6154 5.73381C17.0769 6.04556 16.5385 6.27938 15.9231 6.35731C15.4615 5.81175 14.7692 5.5 14 5.5C12.5385 5.5 11.3077 6.747 11.3077 8.22782C11.3077 8.46163 11.3077 8.61751 11.3846 8.85132C9.15385 8.77338 7.15385 7.68225 5.84615 6.04556C5.61538 6.43525 5.46154 6.90288 5.46154 7.44844C5.46154 8.38369 5.92308 9.24101 6.69231 9.70863C6.23077 9.70863 5.84615 9.55276 5.46154 9.39688C5.46154 10.7218 6.38462 11.8129 7.61538 12.0468C7.38462 12.1247 7.15385 12.1247 6.92308 12.1247C6.76923 12.1247 6.61538 12.1247 6.38462 12.0468C6.69231 13.1379 7.69231 13.9173 8.92308 13.9173C8 14.6187 6.84615 15.0863 5.61538 15.0863C5.38462 15.0863 5.15385 15.0863 5 15.0863C6.15385 15.8657 7.61538 16.3333 9.07692 16.3333C14 16.3333 16.6923 12.2026 16.6923 8.61751C16.6923 8.46163 16.6923 8.38369 16.6923 8.22782C17.1538 7.91607 17.6154 7.3705 18 6.82494Z" fill="white"/>
</svg>
